<?xml version="1.0" encoding="UTF-8"?>
<svg version="1.1" xmlns="http://www.w3.org/2000/svg" width="32" height="32">
<path d="M0 0 C2.875 2.0625 2.875 2.0625 5 4 C5.66 4.33 6.32 4.66 7 5 C7.10823773 7.24893954 7.18569645 9.49937575 7.25 11.75 C7.29640625 13.00296875 7.3428125 14.2559375 7.390625 15.546875 C7 19 7 19 5.18359375 21.33984375 C0.79678236 24.67507602 -3.11450149 26.32427525 -8.625 25.875 C-12.3184408 25.30871436 -14.94664499 24.22062183 -18 22 C-18.66 21.67 -19.32 21.34 -20 21 C-20.31241455 18.28553021 -20.51336592 15.66090639 -20.625 12.9375 C-20.66367187 12.17888672 -20.70234375 11.42027344 -20.7421875 10.63867188 C-20.83673562 8.75952805 -20.91946756 6.87979664 -21 5 C-20.21753906 4.53851562 -19.43507813 4.07703125 -18.62890625 3.6015625 C-16.02926921 2.0898339 -16.02926921 2.0898339 -13.9375 0.375 C-9.37332515 -2.86409183 -5.02245961 -1.89715174 0 0 Z " fill="#643517" transform="translate(23,3)"/>
<path d="M0 0 C0.70125 0.639375 1.4025 1.27875 2.125 1.9375 C2.785 2.2675 3.445 2.5975 4.125 2.9375 C3.795 6.8975 3.465 10.8575 3.125 14.9375 C2.795 14.2775 2.465 13.6175 2.125 12.9375 C-0.185 12.9375 -2.495 12.9375 -4.875 12.9375 C-5.205 12.2775 -5.535 11.6175 -5.875 10.9375 C-7.89963255 10.28536708 -7.89963255 10.28536708 -9.875 9.9375 C-10.205 10.5975 -10.535 11.2575 -10.875 11.9375 C-11.205 10.6175 -11.535 9.2975 -11.875 7.9375 C-12.535 7.9375 -13.195 7.9375 -13.875 7.9375 C-13.545 9.2575 -13.215 10.5775 -12.875 11.9375 C-13.865 12.2675 -14.855 12.5975 -15.875 12.9375 C-16.535 12.6075 -17.195 12.2775 -17.875 11.9375 C-17.875 10.9475 -17.875 9.9575 -17.875 8.9375 C-16.885 8.9375 -15.895 8.9375 -14.875 8.9375 C-14.545 7.6175 -14.215 6.2975 -13.875 4.9375 C-13.215 4.9375 -12.555 4.9375 -11.875 4.9375 C-12.205 3.6175 -12.535 2.2975 -12.875 0.9375 C-8.63019536 0.60457415 -6.51957375 0.49864128 -2.9375 2.9375 C-1.9165625 3.9275 -1.9165625 3.9275 -0.875 4.9375 C-4.48696312 0.99801882 -4.48696312 0.99801882 -9.4765625 -0.16015625 C-10.47429688 -0.14855469 -11.47203125 -0.13695312 -12.5 -0.125 C-14.00433594 -0.11146484 -14.00433594 -0.11146484 -15.5390625 -0.09765625 C-16.69535156 -0.08025391 -16.69535156 -0.08025391 -17.875 -0.0625 C-12.72994947 -5.97930811 -5.82893469 -4.18162706 0 0 Z " fill="#67543A" transform="translate(25.875,5.0625)"/>
<path d="M0 0 C0.556875 0.226875 1.11375 0.45375 1.6875 0.6875 C1.0275 1.1825 0.3675 1.6775 -0.3125 2.1875 C-3.22395116 5.82681395 -2.68260686 8.09817495 -2.3125 12.6875 C-1.9825 13.3475 -1.6525 14.0075 -1.3125 14.6875 C-0.4875 14.8525 0.3375 15.0175 1.1875 15.1875 C2.0125 15.3525 2.8375 15.5175 3.6875 15.6875 C4.0175 16.3475 4.3475 17.0075 4.6875 17.6875 C5.6775 17.6875 6.6675 17.6875 7.6875 17.6875 C8.0175 17.0275 8.3475 16.3675 8.6875 15.6875 C9.0175 16.6775 9.3475 17.6675 9.6875 18.6875 C10.6775 19.0175 11.6675 19.3475 12.6875 19.6875 C12.0275 19.6875 11.3675 19.6875 10.6875 19.6875 C10.3575 21.0075 10.0275 22.3275 9.6875 23.6875 C4.28070213 23.34589403 0.19395005 22.96491822 -4.3125 19.6875 C-4.9725 19.3575 -5.6325 19.0275 -6.3125 18.6875 C-6.62491455 15.97303021 -6.82586592 13.34840639 -6.9375 10.625 C-6.97617188 9.86638672 -7.01484375 9.10777344 -7.0546875 8.32617188 C-7.14923562 6.44702805 -7.23196756 4.56729664 -7.3125 2.6875 C-2.6015625 -0.3515625 -2.6015625 -0.3515625 0 0 Z " fill="#6E4A2B" transform="translate(9.3125,5.3125)"/>
<path d="M0 0 C3.3125 1.6875 3.3125 1.6875 6 4 C6.875 6.75 6.875 6.75 7 9 C6.525625 8.21625 6.05125 7.4325 5.5625 6.625 C2.09107207 3.0689031 -1.2045751 2.68652451 -6 2 C-5.67 3.32 -5.34 4.64 -5 6 C-5.66 6 -6.32 6 -7 6 C-7.33 7.32 -7.66 8.64 -8 10 C-8.99 10 -9.98 10 -11 10 C-10.01 10.99 -9.02 11.98 -8 13 C-7.67 11.68 -7.34 10.36 -7 9 C-6.34 9 -5.68 9 -5 9 C-4.19032562 11.91482778 -3.78154007 13.46113217 -4.9375 16.3125 C-5.288125 16.869375 -5.63875 17.42625 -6 18 C-8.02045442 17.39816251 -10.02111039 16.72693904 -12 16 C-13.64011083 12.71977834 -13.79465981 9.5173467 -13 6 C-9.68756755 1.443012 -5.71736532 -1.21646071 0 0 Z " fill="#50321C" transform="translate(19,4)"/>
<path d="M0 0 C1.32 0 2.64 0 4 0 C4 0.66 4 1.32 4 2 C5.32 2.33 6.64 2.66 8 3 C8 5.31 8 7.62 8 10 C7.34 9.34 6.68 8.68 6 8 C3.93125966 7.3574765 3.93125966 7.3574765 2 7 C1.67 7.66 1.34 8.32 1 9 C0.67 7.68 0.34 6.36 0 5 C-0.66 5 -1.32 5 -2 5 C-1.67 6.32 -1.34 7.64 -1 9 C-1.99 9.33 -2.98 9.66 -4 10 C-4.66 9.67 -5.32 9.34 -6 9 C-6 8.01 -6 7.02 -6 6 C-5.01 6 -4.02 6 -3 6 C-2.67 4.68 -2.34 3.36 -2 2 C-1.34 2 -0.68 2 0 2 C0 1.34 0 0.68 0 0 Z " fill="#D2AA72" transform="translate(14,8)"/>
<path d="M0 0 C0.70125 0.639375 1.4025 1.27875 2.125 1.9375 C2.785 2.2675 3.445 2.5975 4.125 2.9375 C3.795 4.2575 3.465 5.5775 3.125 6.9375 C2.135 6.9375 1.145 6.9375 0.125 6.9375 C-0.8814275 5.27470673 -1.88085407 3.60766516 -2.875 1.9375 C-6.11812718 -0.21972617 -8.79061238 -0.27879494 -12.625 -0.1875 C-13.60984375 -0.16945313 -14.5946875 -0.15140625 -15.609375 -0.1328125 C-16.35703125 -0.10960937 -17.1046875 -0.08640625 -17.875 -0.0625 C-12.72994947 -5.97930811 -5.82893469 -4.18162706 0 0 Z " fill="#DFB76D" transform="translate(25.875,5.0625)"/>
<path d="M0 0 C2 1 2 1 3.375 3.875 C5.6639724 8.27687 7.64105706 9.50346315 12.25 11.1875 C13.1575 11.455625 14.065 11.72375 15 12 C15 12.33 15 12.66 15 13 C9.56922978 13.27614086 6.52125808 13.32445447 2 10 C1.34 9.67 0.68 9.34 0 9 C0 6.03 0 3.06 0 0 Z " fill="#503118" transform="translate(3,15)"/>
<path d="M0 0 C1.65 0 3.3 0 5 0 C5 0.66 5 1.32 5 2 C5.99 2 6.98 2 8 2 C8.33 3.32 8.66 4.64 9 6 C8.01 6.66 7.02 7.32 6 8 C5.01 7.67 4.02 7.34 3 7 C3 6.01 3 5.02 3 4 C2.67 4 2.34 4 2 4 C0.33333333 4 -1.33333333 4 -3 4 C-2.67 3.34 -2.34 2.68 -2 2 C-1.34 2 -0.68 2 0 2 C0 1.34 0 0.68 0 0 Z " fill="#462716" transform="translate(16,20)"/>
<path d="M0 0 C0.66 0 1.32 0 2 0 C2.80967438 2.91482778 3.21845993 4.46113217 2.0625 7.3125 C1.5365625 8.1478125 1.5365625 8.1478125 1 9 C-1.9375 8.1875 -1.9375 8.1875 -5 7 C-5.33 6.01 -5.66 5.02 -6 4 C-5.34 3.01 -4.68 2.02 -4 1 C-3.01 1.99 -2.02 2.98 -1 4 C-0.67 2.68 -0.34 1.36 0 0 Z " fill="#4E331D" transform="translate(12,13)"/>
<path d="M0 0 C1.65 0.33 3.3 0.66 5 1 C5.33 1.99 5.66 2.98 6 4 C5 5 5 5 2.4375 5.0625 C1.2309375 5.0315625 1.2309375 5.0315625 0 5 C0 5.66 0 6.32 0 7 C-0.66 7 -1.32 7 -2 7 C-2.33 6.01 -2.66 5.02 -3 4 C-1.5625 1.8125 -1.5625 1.8125 0 0 Z " fill="#946432" transform="translate(16,15)"/>
<path d="M0 0 C1.32 0.66 2.64 1.32 4 2 C3.67 3.32 3.34 4.64 3 6 C1.68 6 0.36 6 -1 6 C-1.33 6.99 -1.66 7.98 -2 9 C-2.125 5.625 -2.125 5.625 -2 2 C-1.34 1.34 -0.68 0.68 0 0 Z " fill="#441C0E" transform="translate(8,8)"/>
<path d="M0 0 C0.556875 0.226875 1.11375 0.45375 1.6875 0.6875 C-1.92578125 5.375 -1.92578125 5.375 -3.3125 6.6875 C-4.3025 6.6875 -5.2925 6.6875 -6.3125 6.6875 C-6.6425 5.3675 -6.9725 4.0475 -7.3125 2.6875 C-2.88173077 -0.38942308 -2.88173077 -0.38942308 0 0 Z " fill="#A86634" transform="translate(9.3125,5.3125)"/>
<path d="M0 0 C0.66 0 1.32 0 2 0 C2 2.64 2 5.28 2 8 C1.67 7.34 1.34 6.68 1 6 C0.01 6 -0.98 6 -2 6 C-2 4.68 -2 3.36 -2 2 C-1.34 2 -0.68 2 0 2 C0 1.34 0 0.68 0 0 Z " fill="#B18043" transform="translate(27,12)"/>
<path d="M0 0 C3.3 0.99 6.6 1.98 10 3 C10 3.33 10 3.66 10 4 C7.36 4 4.72 4 2 4 C1.34 2.68 0.68 1.36 0 0 Z " fill="#462818" transform="translate(8,24)"/>
<path d="M0 0 C2.97851562 0.53710938 2.97851562 0.53710938 5.95703125 1.07421875 C5.95703125 1.40421875 5.95703125 1.73421875 5.95703125 2.07421875 C2.32703125 2.40421875 -1.30296875 2.73421875 -5.04296875 3.07421875 C-2.04296875 0.07421875 -2.04296875 0.07421875 0 0 Z " fill="#E1A95C" transform="translate(13.04296875,1.92578125)"/>
<path d="M0 0 C0.66 0 1.32 0 2 0 C2.33 0.66 2.66 1.32 3 2 C3.99 2.33 4.98 2.66 6 3 C6 3.99 6 4.98 6 6 C4.68 5.67 3.36 5.34 2 5 C2 4.34 2 3.68 2 3 C1.34 3 0.68 3 0 3 C0 2.01 0 1.02 0 0 Z " fill="#8F7958" transform="translate(14,8)"/>
<path d="M0 0 C0.33 0 0.66 0 1 0 C1 3.3 1 6.6 1 10 C0.67 10 0.34 10 0 10 C0 6.7 0 3.4 0 0 Z " fill="#C77F26" transform="translate(30,10)"/>
<path d="M0 0 C0.33 0 0.66 0 1 0 C1 3.3 1 6.6 1 10 C0.67 10 0.34 10 0 10 C0 6.7 0 3.4 0 0 Z " fill="#691B08" transform="translate(1,10)"/>
<path d="M0 0 C1.98 0 3.96 0 6 0 C6 0.33 6 0.66 6 1 C4.02 1 2.04 1 0 1 C0 0.67 0 0.34 0 0 Z " fill="#150000" transform="translate(13,30)"/>
<path d="M0 0 C4 1 4 1 4 1 Z " fill="#8F7F4F" transform="translate(17,0)"/>
<path d="M0 0 C3 1 3 1 3 1 Z " fill="#381C00" transform="translate(19,29)"/>
<path d="M0 0 C3 1 3 1 3 1 Z " fill="#381C00" transform="translate(10,29)"/>
<path d="M0 0 C0.66 0 1.32 0 2 0 C1.67 0.66 1.34 1.32 1 2 C0.67 1.34 0.34 0.68 0 0 Z " fill="#E25538" transform="translate(25,4)"/>
<path d="M0 0 C0.99 0.495 0.99 0.495 2 1 C1.01 1.495 1.01 1.495 0 2 C0 1.34 0 0.68 0 0 Z " fill="#713800" transform="translate(5,4)"/>
<path d="M0 0 C3 1 3 1 3 1 Z " fill="#E99454" transform="translate(11,0)"/>
<path d="M0 0 C2 1 2 1 2 1 Z " fill="#3F0000" transform="translate(23,27)"/>
<path d="M0 0 C2 1 2 1 2 1 Z " fill="#3F0000" transform="translate(7,27)"/>
<path d="" fill="#555500" transform="translate(0,0)"/>
<path d="M0 0 C2 1 2 1 2 1 Z " fill="#BF946A" transform="translate(21,1)"/>
<path d="M0 0 C2 1 2 1 2 1 Z " fill="#946A3F" transform="translate(9,1)"/>
<path d="" fill="#555500" transform="translate(0,0)"/>
<path d="" fill="#555500" transform="translate(0,0)"/>
<path d="" fill="#FF0000" transform="translate(0,0)"/>
<path d="" fill="#7F0000" transform="translate(0,0)"/>
<path d="" fill="#7F0000" transform="translate(0,0)"/>
<path d="" fill="#FFFFAA" transform="translate(0,0)"/>
<path d="" fill="#FFAA55" transform="translate(0,0)"/>
<path d="" fill="#AAAA55" transform="translate(0,0)"/>
<path d="" fill="#AA5500" transform="translate(0,0)"/>
<path d="" fill="#FFAA55" transform="translate(0,0)"/>
<path d="" fill="#AAAA55" transform="translate(0,0)"/>
</svg>
